{"title":"Prisoners 2013 CAM XviD-VAiN","uid":8995765,"size":1499009500,"categoryP":"video","categoryS":"movies","magnet":"?xt=urn:btih:c29854cd7fd974a0f346b40c0006720bdde6809f&amp;dn=Prisoners+2013+CAM+XviD-VAiN&amp;tr=udp%3A%2F%2Ftracker.openbittorrent.com%3A80&amp;tr=udp%3A%2F%2Fopen.demonii.com%3A1337&amp;tr=udp%3A%2F%2Ftracker.coppersurfer.tk%3A6969&amp;tr=udp%3A%2F%2Fexodus.desync.com%3A6969","seeders":0,"leechers":1,"uploader":"TeX","files":4,"time":1380863630,"description":"[IMG]http://i.imgur.com/GFbrrb7.jpg[/IMG]\n\nVAiN . P R E S E N T S . . .\n\nPrisoners.2013.CAM.XviD-VAiN\n\niMDB........: http://www.imdb.com/title/tt1821694/\nPLOT........: Retired C.I.A. agent Frank Moses reunites his \nunlikely team of elite operatives for a global quest to track \ndown a missing portable nuclear device. \n\n\nT E C H N i C A L . i N F O . . .      \nGeneral\nFormat                                   : AVI\nFormat/Info                              : Audio Video Interleave\nFile size                                : 1.37 GiB\nDuration                                 : 2h 25mn\nOverall bit rate                         : 1 349 Kbps\nWriting application                      : VirtualDubMod 1.5.10.2 (build 2540/release)\nWriting library                          : VirtualDubMod build 2540/release\n\nVideo\nID                                       : 0\nFormat                                   : MPEG-4 Visual\nFormat profile                           : Advanced Simple@L5\nFormat settings, BVOP                    : 2\nFormat settings, QPel                    : No\nFormat settings, GMC                     : No warppoints\nFormat settings, Matrix                  : Default (MPEG)\nMuxing mode                              : Packed bitstream\nCodec ID                                 : XVID\nCodec ID/Hint                            : XviD\nDuration                                 : 2h 25mn\nBit rate                                 : 1 209 Kbps\nWidth                                    : 720 pixels\nHeight                                   : 400 pixels\nDisplay aspect ratio                     : 16:9\nFrame rate                               : 29.970 fps\nColor space                              : YUV\nChroma subsampling                       : 4:2:0\nBit depth                                : 8 bits\nScan type                                : Progressive\nCompression mode                         : Lossy\nBits/(Pixel*Frame)                       : 0.140\nStream size                              : 1.23 GiB (90%)\nWriting library                          : XviD 1.2.0.dev47 (UTC 2006-11-01)\n\nAudio\nID                                       : 1\nFormat                                   : MPEG Audio\nFormat version                           : Version 1\nFormat profile                           : Layer 3\nMode                                     : Joint stereo\nCodec ID                                 : 55\nCodec ID/Hint                            : MP3\nDuration                                 : 2h 25mn\nBit rate mode                            : Constant\nBit rate                                 : 128 Kbps\nChannel(s)                               : 2 channels\nSampling rate                            : 48.0 KHz\nCompression mode                         : Lossy\nStream size                              : 133 MiB (9%)\nAlignment                                : Aligned on interleaves\nInterleave, duration                     : 33 ms (1.00 video frame)\nInterleave, preload duration             : 504 ms\nWriting library                          : LAME3.99r\nEncoding settings\t\t\t : -m j -V 4 -q 2 -lowpass 17 -b 128\n\n\n\n\n\nE N C O D E R S . N O T E S . . .       \n\nSOURCE......: BLACKTOPS (BIG THNX)\nSAMPLE......: Yes\nADDED NOTE..:  \n\nwell, video was a little dark, ar needed some lovin but overall the source was good. cheers to blacktops for the ups and shares. \n\nbrought as much life out of this, tried to get better blacks and whites, the touched it off with a few of the gereric tweak filters. audio is pretty good. colours were off so fixed to what was meant to be. the interlace issues we taken care of but there is still a weird flicker on reds and oranges. tried to remove best we could without losing detail and killing it. \n\nv.7a.5 m.4 nothing we haven't seen b4\n\n\nS C R E E N . S H O T S . . .\n\n[IMG]http://i.imgur.com/tC3erdx.png[/IMG]\n\n[IMG]http://i.imgur.com/1fVKFQV.png[/IMG]\n\n[IMG]http://i.imgur.com/E3xmCCr.png[/IMG]\n\n[IMG]http://i.imgur.com/MV3HKMK.png[/IMG]\n\n\nGREETZ:\n\nW4NTED worthy rival grps to add here. ;) SUCKAS!!!!!!!\n","torrent":{"xt":"urn:btih:c29854cd7fd974a0f346b40c0006720bdde6809f","amp;dn":"Prisoners+2013+CAM+XviD-VAiN","amp;tr":["udp%3A%2F%2Ftracker.openbittorrent.com%3A80","udp%3A%2F%2Fopen.demonii.com%3A1337","udp%3A%2F%2Ftracker.coppersurfer.tk%3A6969","udp%3A%2F%2Fexodus.desync.com%3A6969"],"infoHash":"c29854cd7fd974a0f346b40c0006720bdde6809f","infoHashBuffer":{"type":"Buffer","data":[194,152,84,205,127,217,116,160,243,70,180,12,0,6,114,11,221,230,128,159]},"announce":[],"urlList":[]}}